#tb 0: 250000/1585341
0,          0,          0,        1,   192000, 0xe1d317d6
0,          1,          1,        1,   192000, 0xe100109d
0,          2,          2,        1,   192000, 0xecc69c65
0,          3,          3,        1,   192000, 0x68f06324
0,          4,          4,        1,   192000, 0x68f06324
0,          5,          5,        1,   192000, 0x68f06324
0,          6,          6,        1,   192000, 0x68f06324
0,          7,          7,        1,   192000, 0x68f06324
0,          8,          8,        1,   192000, 0x68f06324
0,          9,          9,        1,   192000, 0x68f06324
0,         10,         10,        1,   192000, 0x68f06324
0,         11,         11,        1,   192000, 0x68f06324
0,         12,         12,        1,   192000, 0x68f06324
0,         13,         13,        1,   192000, 0x68f06324
0,         14,         14,        1,   192000, 0x68f06324
0,         15,         15,        1,   192000, 0x68f06324
0,         16,         16,        1,   192000, 0x68f06324
0,         17,         17,        1,   192000, 0x4c03d2e3
0,         18,         18,        1,   192000, 0x4c03d2e3
0,         19,         19,        1,   192000, 0x4c03d2e3
0,         20,         20,        1,   192000, 0x4c03d2e3
0,         21,         21,        1,   192000, 0xb562cf68
0,         22,         22,        1,   192000, 0xb562cf68
0,         23,         23,        1,   192000, 0xb562cf68
0,         24,         24,        1,   192000, 0xb562cf68
0,         25,         25,        1,   192000, 0xb562cf68
0,         26,         26,        1,   192000, 0x0e5e03c7
0,         27,         27,        1,   192000, 0x0e5e03c7
0,         28,         28,        1,   192000, 0x0e5e03c7
0,         29,         29,        1,   192000, 0x0e5e03c7
0,         30,         30,        1,   192000, 0xeb2e0f67
0,         31,         31,        1,   192000, 0xeb2e0f67
0,         32,         32,        1,   192000, 0xeb2e0f67
0,         33,         33,        1,   192000, 0xeb2e0f67
0,         34,         34,        1,   192000, 0xeb2e0f67
0,         35,         35,        1,   192000, 0xdce603c7
0,         36,         36,        1,   192000, 0xdce603c7
0,         37,         37,        1,   192000, 0xdce603c7
0,         38,         38,        1,   192000, 0xdce603c7
0,         39,         39,        1,   192000, 0xa8e7db08
0,         40,         40,        1,   192000, 0xa8e7db08
0,         41,         41,        1,   192000, 0xa8e7db08
0,         42,         42,        1,   192000, 0xa8e7db08
0,         43,         43,        1,   192000, 0xa8e7db08
0,         44,         44,        1,   192000, 0x322a1b07
0,         45,         45,        1,   192000, 0x322a1b07
0,         46,         46,        1,   192000, 0x322a1b07
0,         47,         47,        1,   192000, 0x322a1b07
0,         48,         48,        1,   192000, 0x743206af
0,         49,         49,        1,   192000, 0x743206af
0,         50,         50,        1,   192000, 0x743206af
0,         51,         51,        1,   192000, 0x743206af
0,         52,         52,        1,   192000, 0x743206af
0,         53,         53,        1,   192000, 0x50195ddf
0,         54,         54,        1,   192000, 0x50195ddf
0,         55,         55,        1,   192000, 0x50195ddf
0,         56,         56,        1,   192000, 0x50195ddf
0,         57,         57,        1,   192000, 0xd31620d7
0,         58,         58,        1,   192000, 0xd31620d7
0,         59,         59,        1,   192000, 0xd31620d7
0,         60,         60,        1,   192000, 0xd31620d7
0,         61,         61,        1,   192000, 0xd31620d7
0,         62,         62,        1,   192000, 0x3af023bf
0,         63,         63,        1,   192000, 0x3af023bf
0,         64,         64,        1,   192000, 0x3af023bf
0,         65,         65,        1,   192000, 0x3af023bf
0,         66,         66,        1,   192000, 0x561a124f
0,         67,         67,        1,   192000, 0x561a124f
0,         68,         68,        1,   192000, 0x561a124f
0,         69,         69,        1,   192000, 0x561a124f
0,         70,         70,        1,   192000, 0x561a124f
0,         71,         71,        1,   192000, 0x99210c7f
0,         72,         72,        1,   192000, 0x99210c7f
0,         73,         73,        1,   192000, 0x99210c7f
0,         74,         74,        1,   192000, 0x99210c7f
0,         75,         75,        1,   192000, 0xc77b03c7
0,         76,         76,        1,   192000, 0xc77b03c7
0,         77,         77,        1,   192000, 0xc77b03c7
0,         78,         78,        1,   192000, 0xc77b03c7
0,         79,         79,        1,   192000, 0xc77b03c7
0,         80,         80,        1,   192000, 0x83ea7550
0,         81,         81,        1,   192000, 0xec285270
0,         82,         82,        1,   192000, 0x0e075558
0,         83,         83,        1,   192000, 0x880c2108
0,         84,         84,        1,   192000, 0x40c523f0
0,         85,         85,        1,   192000, 0x01378f78
0,         86,         86,        1,   192000, 0x42045558
0,         87,         87,        1,   192000, 0xde8f3278
0,         88,         88,        1,   192000, 0xa58c0110
0,         89,         89,        1,   192000, 0x335ea9d1
0,         90,         90,        1,   192000, 0x7e94bb41
0,         91,         91,        1,   192000, 0x9cc5d569
0,         92,         92,        1,   192000, 0xe942e109
0,         93,         93,        1,   192000, 0x4cb83848
0,         94,         94,        1,   192000, 0x6986fe19
0,         95,         95,        1,   192000, 0xbb8c23f0
0,         96,         96,        1,   192000, 0x296766c8
0,         97,         97,        1,   192000, 0xb4230cb0
0,         98,         98,        1,   192000, 0x2c2f1850
0,         99,         99,        1,   192000, 0x93c70110
0,        100,        100,        1,   192000, 0xb830a9d1
0,        101,        101,        1,   192000, 0xbed48fa9
0,        102,        102,        1,   192000, 0xc087bb41
0,        103,        103,        1,   192000, 0x792de6d9
0,        104,        104,        1,   192000, 0x1edaf849
0,        105,        105,        1,   192000, 0x6564bb41
0,        106,        106,        1,   192000, 0x9153d569
0,        107,        107,        1,   192000, 0xe73ff561
0,        108,        108,        1,   192000, 0xfa3be3f1
0,        109,        109,        1,   192000, 0x8008fe19
0,        110,        110,        1,   192000, 0xd2561b38
0,        111,        111,        1,   192000, 0xae3c26d8
0,        112,        112,        1,   192000, 0xb0114f88
0,        113,        113,        1,   192000, 0x117e1e20
0,        114,        114,        1,   192000, 0x482d1280
0,        115,        115,        1,   192000, 0x425106e0
0,        116,        116,        1,   192000, 0x0e6b0cb0
0,        117,        117,        1,   192000, 0x95dc2ca8
0,        118,        118,        1,   192000, 0x52097b20
0,        119,        119,        1,   192000, 0x41a84f88
0,        120,        120,        1,   192000, 0xb78d7268
0,        121,        121,        1,   192000, 0x2cd366c8
0,        122,        122,        1,   192000, 0xbf39e109
0,        123,        123,        1,   192000, 0xecbaeca9
0,        124,        124,        1,   192000, 0x3254eca9
0,        125,        125,        1,   192000, 0x3fc903f8
0,        126,        126,        1,   192000, 0x0bbc5e10
0,        127,        127,        1,   192000, 0xe9103560
0,        128,        128,        1,   192000, 0xbd5d2f90
0,        129,        129,        1,   192000, 0x7ace2ca8
0,        130,        130,        1,   192000, 0x7354c6e1
0,        131,        131,        1,   192000, 0x72e0d569
0,        132,        132,        1,   192000, 0xa4ade3f1
0,        133,        133,        1,   192000, 0xf2f8cf99
0,        134,        134,        1,   192000, 0x2b7ee6d9
0,        135,        135,        1,   192000, 0x548d1b38
0,        136,        136,        1,   192000, 0xa1551b38
0,        137,        137,        1,   192000, 0xfb3e3560
0,        138,        138,        1,   192000, 0x3aaaccb1
0,        139,        139,        1,   192000, 0xa85ee109
0,        140,        140,        1,   192000, 0xc1bff849
0,        141,        141,        1,   192000, 0xa62bef91
0,        142,        142,        1,   192000, 0xddf40cb0
0,        143,        143,        1,   192000, 0x15bb3e18
0,        144,        144,        1,   192000, 0x92fd5558
0,        145,        145,        1,   192000, 0x2d365270
0,        146,        146,        1,   192000, 0xb5f343e8
0,        147,        147,        1,   192000, 0x93042108
0,        148,        148,        1,   192000, 0x96d59830
0,        149,        149,        1,   192000, 0x1f69ddf0
0,        150,        150,        1,   192000, 0x8eb0124f
0,        151,        151,        1,   192000, 0xae727dd7
0,        152,        152,        1,   192000, 0xb8a63aff
0,        153,        153,        1,   192000, 0xfae83de7
0,        154,        154,        1,   192000, 0x2f034987
0,        155,        155,        1,   192000, 0xa99e1537
0,        156,        156,        1,   192000, 0x0ad70c7f
0,        157,        157,        1,   192000, 0x74b3e990
0,        158,        158,        1,   192000, 0x1bf0d250
